<?xml version="1.0" encoding="UTF-8" standalone="no"?>
<svg
   xmlns:dc="http://purl.org/dc/elements/1.1/"
   xmlns:cc="http://creativecommons.org/ns#"
   xmlns:rdf="http://www.w3.org/1999/02/22-rdf-syntax-ns#"
   xmlns:svg="http://www.w3.org/2000/svg"
   xmlns="http://www.w3.org/2000/svg"
   xmlns:sodipodi="http://sodipodi.sourceforge.net/DTD/sodipodi-0.dtd"
   xmlns:inkscape="http://www.inkscape.org/namespaces/inkscape"
   id="Layer_1"
   data-name="Layer 1"
   viewBox="0 0 53.81 56.69"
   version="1.1"
   sodipodi:docname="icon.svg"
   inkscape:version="0.92.3 (2405546, 2018-03-11)">
  <metadata
     id="metadata34">
    <rdf:RDF>
      <cc:Work
         rdf:about="">
        <dc:format>image/svg+xml</dc:format>
        <dc:type
           rdf:resource="http://purl.org/dc/dcmitype/StillImage" />
        <dc:title>Vector Smart Object</dc:title>
      </cc:Work>
    </rdf:RDF>
  </metadata>
  <sodipodi:namedview
     pagecolor="#ffffff"
     bordercolor="#666666"
     borderopacity="1"
     objecttolerance="10"
     gridtolerance="10"
     guidetolerance="10"
     inkscape:pageopacity="0"
     inkscape:pageshadow="2"
     inkscape:window-width="1366"
     inkscape:window-height="689"
     id="namedview32"
     showgrid="false"
     inkscape:zoom="8.3612632"
     inkscape:cx="26.905001"
     inkscape:cy="28.344999"
     inkscape:window-x="-9"
     inkscape:window-y="-9"
     inkscape:window-maximized="1"
     inkscape:current-layer="logo-v1" />
  <defs
     id="defs4">
    <style
       id="style2">.cls-1{fill:#36a9d0;}.cls-2{fill:#ffcc32;}.cls-3{fill:#ef4129;}.cls-4{fill:#71bf4b;}.cls-5{fill:#414042;}</style>
  </defs>
  <title
     id="title6">Vector Smart Object</title>
  <g
     id="logo-v1">
    <g
       id="sygnet"
       transform="translate(0.00500069,2)">
      <path
         class="cls-1"
         d="m 75.29,44.43 v 0 a 6.06,6.06 0 0 0 -8.58,0 v 0 L 52.65,58.49 v 0 L 57,62.82 75.33,44.47 Z"
         transform="translate(-44.1,-42.65)"
         id="path8"
         inkscape:connector-curvature="0"
         style="fill:#36a9d0" />
      <path
         class="cls-2"
         d="m 66.71,81.21 v 0 a 6.06,6.06 0 0 0 8.58,0 v 0 L 89.35,67.15 v 0 L 85,62.82 66.67,81.16 Z"
         transform="translate(-44.1,-42.65)"
         id="path10"
         inkscape:connector-curvature="0"
         style="fill:#ffcc32" />
      <path
         class="cls-3"
         d="m 89.39,58.53 v 0 L 77.5,46.64 73.16,51 89.34,67.15 v 0 0 a 6.06,6.06 0 0 0 0.05,-8.62 z"
         transform="translate(-44.1,-42.65)"
         id="path12"
         inkscape:connector-curvature="0"
         style="fill:#ef4129" />
      <path
         class="cls-4"
         d="m 52.61,67.11 v 0 L 64.5,79 68.83,74.67 52.66,58.49 v 0 0 a 6.06,6.06 0 0 0 -0.05,8.62 z"
         transform="translate(-44.1,-42.65)"
         id="path14"
         inkscape:connector-curvature="0"
         style="fill:#71bf4b" />
    </g>
    <g
       aria-label="ANIMATION"
       style="font-style:normal;font-variant:normal;font-weight:bold;font-stretch:normal;font-size:8.77008247px;line-height:1.25;font-family:'Courier New';-inkscape-font-specification:'Courier New, Bold';font-variant-ligatures:normal;font-variant-caps:normal;font-variant-numeric:normal;font-feature-settings:normal;text-align:start;letter-spacing:0px;word-spacing:0px;writing-mode:lr-tb;text-anchor:start;fill:#008080;fill-opacity:1;stroke:none;stroke-width:1"
       id="text843">
      <path
         d="M 7.0738233,48.941363 H 4.9412545 l -0.2141134,0.535284 h 0.2141134 q 0.3168877,0 0.449638,0.124185 0.1370325,0.119904 0.1370325,0.316888 0,0.192702 -0.1370325,0.316888 -0.1327503,0.119903 -0.449638,0.119903 H 3.7593488 q -0.3168877,0 -0.449638,-0.119903 -0.1370326,-0.124186 -0.1370326,-0.32117 0,-0.196984 0.1413149,-0.32117 0.1413148,-0.124186 0.466767,-0.115621 l 1.37889,-3.434378 H 4.5858263 q -0.3168877,0 -0.4539203,-0.119904 -0.1327503,-0.124186 -0.1327503,-0.32117 0,-0.196984 0.1327503,-0.316888 0.1370326,-0.124185 0.4539203,-0.124185 l 1.8970442,0.0043 1.7471649,4.312243 q 0.3083232,0 0.4068153,0.06852 0.1969843,0.141315 0.1969843,0.372557 0,0.192702 -0.1327503,0.316888 -0.1327502,0.119903 -0.449638,0.119903 H 7.0695411 q -0.3168878,0 -0.4539203,-0.119903 -0.1327503,-0.124186 -0.1327503,-0.32117 0,-0.192702 0.1327503,-0.312606 0.1370325,-0.124185 0.4539203,-0.124185 H 7.2836544 Z M 6.7098307,48.063499 6.0032566,46.324898 5.2924003,48.063499 Z"
         style="font-style:normal;font-variant:normal;font-weight:bold;font-stretch:normal;font-size:8.77008247px;font-family:'Courier New';-inkscape-font-specification:'Courier New, Bold';font-variant-ligatures:normal;font-variant-caps:normal;font-variant-numeric:normal;font-feature-settings:normal;text-align:start;writing-mode:lr-tb;text-anchor:start;stroke-width:1;fill:#008080"
         id="path957"
         inkscape:connector-curvature="0" />
      <path
         d="m 10.161338,46.821641 v 2.655006 h 0.316887 q 0.316888,0 0.449638,0.124185 0.137033,0.119904 0.137033,0.316888 0,0.192702 -0.137033,0.316888 -0.13275,0.119903 -0.449638,0.119903 H 9.3262956 q -0.3168877,0 -0.4539203,-0.119903 -0.1327502,-0.124186 -0.1327502,-0.32117 0,-0.18842 0.1327502,-0.312606 0.1327503,-0.124185 0.4110976,-0.124185 V 46.042269 H 9.1464404 q -0.3168877,0 -0.4539203,-0.119904 -0.1327502,-0.124186 -0.1327502,-0.32117 0,-0.196984 0.1327502,-0.316888 0.1370326,-0.124185 0.4539203,-0.124185 l 1.0148976,0.0043 2.243907,3.520023 v -2.642158 h -0.316887 q -0.316888,0 -0.453921,-0.119904 -0.13275,-0.124186 -0.13275,-0.32117 0,-0.196984 0.13275,-0.316888 0.137033,-0.124185 0.453921,-0.124185 l 1.15193,0.0043 q 0.316887,0 0.449638,0.119903 0.137032,0.119904 0.137032,0.316888 0,0.192702 -0.13275,0.316888 -0.13275,0.124186 -0.406816,0.124186 v 4.312242 h -0.8693 z"
         style="font-style:normal;font-variant:normal;font-weight:bold;font-stretch:normal;font-size:8.77008247px;font-family:'Courier New';-inkscape-font-specification:'Courier New, Bold';font-variant-ligatures:normal;font-variant-caps:normal;font-variant-numeric:normal;font-feature-settings:normal;text-align:start;writing-mode:lr-tb;text-anchor:start;stroke-width:1;fill:#008080"
         id="path959"
         inkscape:connector-curvature="0" />
      <path
         d="m 16.957295,46.042269 v 3.434378 h 0.886429 q 0.316888,0 0.449638,0.124185 0.137033,0.119904 0.137033,0.316888 0,0.192702 -0.137033,0.316888 -0.13275,0.119903 -0.449638,0.119903 h -2.650723 q -0.316888,0 -0.45392,-0.119903 -0.13275,-0.124186 -0.13275,-0.32117 0,-0.192702 0.13275,-0.312606 0.137032,-0.124185 0.45392,-0.124185 h 0.886429 v -3.434378 h -0.886429 q -0.316888,0 -0.45392,-0.119904 -0.13275,-0.124186 -0.13275,-0.32117 0,-0.196984 0.13275,-0.316888 0.137032,-0.124185 0.45392,-0.124185 l 2.650723,0.0043 q 0.316888,0 0.449638,0.119903 0.137033,0.119904 0.137033,0.316888 0,0.196984 -0.137033,0.32117 -0.13275,0.119904 -0.449638,0.119904 z"
         style="font-style:normal;font-variant:normal;font-weight:bold;font-stretch:normal;font-size:8.77008247px;font-family:'Courier New';-inkscape-font-specification:'Courier New, Bold';font-variant-ligatures:normal;font-variant-caps:normal;font-variant-numeric:normal;font-feature-settings:normal;text-align:start;writing-mode:lr-tb;text-anchor:start;stroke-width:1;fill:#008080"
         id="path961"
         inkscape:connector-curvature="0" />
      <path
         d="m 20.40452,46.860182 v 2.616465 h 0.316888 q 0.316888,0 0.449638,0.124185 0.137033,0.119904 0.137033,0.316888 0,0.192702 -0.137033,0.316888 -0.13275,0.119903 -0.449638,0.119903 h -1.15193 q -0.316888,0 -0.449638,-0.119903 -0.137032,-0.124186 -0.137032,-0.32117 0,-0.192702 0.13275,-0.312606 0.13275,-0.124185 0.411098,-0.124185 v -3.434378 q -0.231243,-0.02141 -0.351146,-0.141315 -0.115622,-0.119904 -0.115622,-0.299759 0,-0.196984 0.132751,-0.316888 0.137032,-0.124185 0.45392,-0.124185 l 0.96351,0.0043 1.194753,2.642158 1.173341,-2.64644 0.972074,0.0043 q 0.316888,0 0.449638,0.119903 0.137033,0.119904 0.137033,0.316888 0,0.179855 -0.119904,0.299759 -0.119903,0.119903 -0.346863,0.141315 v 3.434378 q 0.278347,0 0.411097,0.124185 0.132751,0.124186 0.132751,0.316888 0,0.192702 -0.137033,0.316888 -0.13275,0.119903 -0.449638,0.119903 h -1.156212 q -0.312606,0 -0.449638,-0.119903 -0.13275,-0.124186 -0.13275,-0.32117 0,-0.192702 0.13275,-0.312606 0.137032,-0.124185 0.449638,-0.124185 h 0.32117 v -2.616465 l -1.006333,2.261036 H 21.4237 Z"
         style="font-style:normal;font-variant:normal;font-weight:bold;font-stretch:normal;font-size:8.77008247px;font-family:'Courier New';-inkscape-font-specification:'Courier New, Bold';font-variant-ligatures:normal;font-variant-caps:normal;font-variant-numeric:normal;font-feature-settings:normal;text-align:start;writing-mode:lr-tb;text-anchor:start;stroke-width:1;fill:#008080"
         id="path963"
         inkscape:connector-curvature="0" />
      <path
         d="m 28.108318,48.941363 h -2.132569 l -0.214113,0.535284 h 0.214113 q 0.316888,0 0.449638,0.124185 0.137032,0.119904 0.137032,0.316888 0,0.192702 -0.137032,0.316888 -0.13275,0.119903 -0.449638,0.119903 h -1.181906 q -0.316888,0 -0.449638,-0.119903 -0.137032,-0.124186 -0.137032,-0.32117 0,-0.196984 0.141314,-0.32117 0.141315,-0.124186 0.466768,-0.115621 l 1.378889,-3.434378 h -0.573823 q -0.316888,0 -0.453921,-0.119904 -0.13275,-0.124186 -0.13275,-0.32117 0,-0.196984 0.13275,-0.316888 0.137033,-0.124185 0.453921,-0.124185 l 1.897044,0.0043 1.747165,4.312243 q 0.308323,0 0.406815,0.06852 0.196984,0.141315 0.196984,0.372557 0,0.192702 -0.13275,0.316888 -0.13275,0.119903 -0.449638,0.119903 h -1.181906 q -0.316887,0 -0.45392,-0.119903 -0.13275,-0.124186 -0.13275,-0.32117 0,-0.192702 0.13275,-0.312606 0.137033,-0.124185 0.45392,-0.124185 h 0.214114 z m -0.363993,-0.877864 -0.706574,-1.738601 -0.710856,1.738601 z"
         style="font-style:normal;font-variant:normal;font-weight:bold;font-stretch:normal;font-size:8.77008247px;font-family:'Courier New';-inkscape-font-specification:'Courier New, Bold';font-variant-ligatures:normal;font-variant-caps:normal;font-variant-numeric:normal;font-feature-settings:normal;text-align:start;writing-mode:lr-tb;text-anchor:start;stroke-width:1;fill:#008080"
         id="path965"
         inkscape:connector-curvature="0" />
      <path
         d="m 32.720319,46.042269 v 3.434378 h 0.590952 q 0.316888,0 0.449638,0.124185 0.137033,0.119904 0.137033,0.316888 0,0.192702 -0.137033,0.316888 -0.13275,0.119903 -0.449638,0.119903 h -2.055488 q -0.316887,0 -0.45392,-0.119903 -0.13275,-0.124186 -0.13275,-0.32117 0,-0.192702 0.13275,-0.312606 0.137033,-0.124185 0.45392,-0.124185 h 0.586671 v -3.434378 h -0.950663 v 0.830759 q 0,0.316888 -0.124186,0.453921 -0.119904,0.13275 -0.316888,0.13275 -0.192702,0 -0.316888,-0.13275 -0.119903,-0.137033 -0.119903,-0.453921 v -1.712906 l 4.547767,0.0043 v 1.708624 q 0,0.316888 -0.124185,0.453921 -0.119904,0.13275 -0.316888,0.13275 -0.192702,0 -0.316888,-0.13275 -0.119903,-0.137033 -0.119903,-0.453921 v -0.830759 z"
         style="font-style:normal;font-variant:normal;font-weight:bold;font-stretch:normal;font-size:8.77008247px;font-family:'Courier New';-inkscape-font-specification:'Courier New, Bold';font-variant-ligatures:normal;font-variant-caps:normal;font-variant-numeric:normal;font-feature-settings:normal;text-align:start;writing-mode:lr-tb;text-anchor:start;stroke-width:1;fill:#008080"
         id="path967"
         inkscape:connector-curvature="0" />
      <path
         d="m 37.99179,46.042269 v 3.434378 h 0.88643 q 0.316887,0 0.449638,0.124185 0.137032,0.119904 0.137032,0.316888 0,0.192702 -0.137032,0.316888 -0.132751,0.119903 -0.449638,0.119903 h -2.650724 q -0.316887,0 -0.45392,-0.119903 -0.13275,-0.124186 -0.13275,-0.32117 0,-0.192702 0.13275,-0.312606 0.137033,-0.124185 0.45392,-0.124185 h 0.88643 v -3.434378 h -0.88643 q -0.316887,0 -0.45392,-0.119904 -0.13275,-0.124186 -0.13275,-0.32117 0,-0.196984 0.13275,-0.316888 0.137033,-0.124185 0.45392,-0.124185 l 2.650724,0.0043 q 0.316887,0 0.449638,0.119903 0.137032,0.119904 0.137032,0.316888 0,0.196984 -0.137032,0.32117 -0.132751,0.119904 -0.449638,0.119904 z"
         style="font-style:normal;font-variant:normal;font-weight:bold;font-stretch:normal;font-size:8.77008247px;font-family:'Courier New';-inkscape-font-specification:'Courier New, Bold';font-variant-ligatures:normal;font-variant-caps:normal;font-variant-numeric:normal;font-feature-settings:normal;text-align:start;writing-mode:lr-tb;text-anchor:start;stroke-width:1;fill:#008080"
         id="path969"
         inkscape:connector-curvature="0" />
      <path
         d="m 45.275924,47.759458 q 0,1.169058 -0.745115,1.948431 -0.740832,0.77509 -1.717189,0.77509 -0.877864,0 -1.584438,-0.646622 -0.873583,-0.800784 -0.873583,-2.076899 0,-1.276116 0.873583,-2.081182 0.706574,-0.646622 1.584438,-0.646622 0.976357,0 1.717189,0.779372 0.745115,0.77509 0.745115,1.948432 z m -0.877865,0 q 0,-0.800784 -0.483896,-1.323221 -0.483896,-0.526719 -1.100543,-0.526719 -0.612364,0 -1.09626,0.526719 -0.483896,0.526719 -0.483896,1.323221 0,0.796501 0.483896,1.32322 0.483896,0.522437 1.09626,0.522437 0.616647,0 1.100543,-0.522437 0.483896,-0.522437 0.483896,-1.32322 z"
         style="font-style:normal;font-variant:normal;font-weight:bold;font-stretch:normal;font-size:8.77008247px;font-family:'Courier New';-inkscape-font-specification:'Courier New, Bold';font-variant-ligatures:normal;font-variant-caps:normal;font-variant-numeric:normal;font-feature-settings:normal;text-align:start;writing-mode:lr-tb;text-anchor:start;stroke-width:1;fill:#008080"
         id="path971"
         inkscape:connector-curvature="0" />
      <path
         d="m 46.971703,46.821641 v 2.655006 h 0.316888 q 0.316887,0 0.449638,0.124185 0.137032,0.119904 0.137032,0.316888 0,0.192702 -0.137032,0.316888 -0.132751,0.119903 -0.449638,0.119903 h -1.15193 q -0.316888,0 -0.45392,-0.119903 -0.132751,-0.124186 -0.132751,-0.32117 0,-0.18842 0.132751,-0.312606 0.13275,-0.124185 0.411097,-0.124185 v -3.434378 h -0.137032 q -0.316888,0 -0.453921,-0.119904 -0.13275,-0.124186 -0.13275,-0.32117 0,-0.196984 0.13275,-0.316888 0.137033,-0.124185 0.453921,-0.124185 l 1.014897,0.0043 2.243908,3.520023 v -2.642158 h -0.316888 q -0.316888,0 -0.45392,-0.119904 -0.132751,-0.124186 -0.132751,-0.32117 0,-0.196984 0.132751,-0.316888 0.137032,-0.124185 0.45392,-0.124185 l 1.15193,0.0043 q 0.316887,0 0.449638,0.119903 0.137032,0.119904 0.137032,0.316888 0,0.192702 -0.13275,0.316888 -0.13275,0.124186 -0.406815,0.124186 v 4.312242 h -0.869301 z"
         style="font-style:normal;font-variant:normal;font-weight:bold;font-stretch:normal;font-size:8.77008247px;font-family:'Courier New';-inkscape-font-specification:'Courier New, Bold';font-variant-ligatures:normal;font-variant-caps:normal;font-variant-numeric:normal;font-feature-settings:normal;text-align:start;writing-mode:lr-tb;text-anchor:start;stroke-width:1;fill:#008080"
         id="path973"
         inkscape:connector-curvature="0" />
    </g>
    <g
       id="g955"
       transform="matrix(0.03817099,0,0,0.03817099,9.9269523,160.43541)"
       style="stroke-width:26.19790649">
      <g
         id="g899"
         style="fill:#008080;stroke-width:26.19790649"
         transform="translate(209.92757,-3822.5617)">
	<path
   id="path897"
   d="m 374.62874,-15.998485 c 0,0 -100.478,0 -133.97,0 -60.062,0 -116.585,45.503 -116.585,98.211 0,53.862995 40.941,97.332995 102.044,97.332995 4.249,0 8.378,-0.085 12.42,-0.376 -3.964,7.593 -6.8,16.144 -6.8,25.021 0,14.969 8.052,27.104 18.233,37.012 -7.692,0 -15.12,0.224 -23.226,0.224 -74.391,-0.001 -131.649998,47.38 -131.649998,96.511 0,48.391 62.770998,78.656 137.166998,78.656 84.812,0 131.653,-48.122 131.653,-96.514 0,-38.801 -11.447,-62.036 -46.843,-87.067 -12.107,-8.571 -35.267,-29.418 -35.267,-41.672 0,-14.36 4.099,-21.434 25.714,-38.323 22.156,-17.312 37.837,-41.651 37.837,-69.957995 0,-33.703 -15.011,-66.549 -43.188,-77.3860004 h 42.479 z m -46.793,327.728995 c 1.062,4.486 1.643,9.104 1.643,13.814 0,39.1 -25.194,69.655 -97.487,69.655 -51.421,0 -88.558,-32.552 -88.558,-71.65 0,-38.321 46.063,-70.222 97.482,-69.666 12,0.127 23.184,2.058 33.334,5.345 27.913,19.414 47.937,30.38 53.586,52.502 z m -82.331,-145.841 c -34.519,-1.032 -67.317,-38.613 -73.275,-83.929995 -5.958,-45.333 17.185,-80.0210004 51.694,-78.9950004 34.502,1.037 67.317,37.4070004 73.278,82.7290004 5.953,45.329995 -17.195,81.228995 -51.697,80.195995 z"
   inkscape:connector-curvature="0"
   style="fill:#008080;stroke-width:26.19790649" />

</g>
      <g
         id="g901"
         style="stroke-width:26.19790649">
</g>
      <g
         id="g903"
         style="stroke-width:26.19790649">
</g>
      <g
         id="g905"
         style="stroke-width:26.19790649">
</g>
      <g
         id="g907"
         style="stroke-width:26.19790649">
</g>
      <g
         id="g909"
         style="stroke-width:26.19790649">
</g>
      <g
         id="g911"
         style="stroke-width:26.19790649">
</g>
      <g
         id="g913"
         style="stroke-width:26.19790649">
</g>
      <g
         id="g915"
         style="stroke-width:26.19790649">
</g>
      <g
         id="g917"
         style="stroke-width:26.19790649">
</g>
      <g
         id="g919"
         style="stroke-width:26.19790649">
</g>
      <g
         id="g921"
         style="stroke-width:26.19790649">
</g>
      <g
         id="g923"
         style="stroke-width:26.19790649">
</g>
      <g
         id="g925"
         style="stroke-width:26.19790649">
</g>
      <g
         id="g927"
         style="stroke-width:26.19790649">
</g>
      <g
         id="g929"
         style="stroke-width:26.19790649">
</g>
    </g>
  </g>
</svg>
